<?xml version="1.0" encoding="UTF-8" standalone="no"?>
<!-- Created with Inkscape (http://www.inkscape.org/) -->

<svg
   version="1.1"
   width="1220mm"
   height="610mm"
   id="svg2"
   inkscape:version="1.1.1 (3bf5ae0d25, 2021-09-20)"
   sodipodi:docname="3mm.svg"
   viewBox="0 0 4611.0234 2305.5117"
   xmlns:inkscape="http://www.inkscape.org/namespaces/inkscape"
   xmlns:sodipodi="http://sodipodi.sourceforge.net/DTD/sodipodi-0.dtd"
   xmlns="http://www.w3.org/2000/svg"
   xmlns:svg="http://www.w3.org/2000/svg"
   xmlns:rdf="http://www.w3.org/1999/02/22-rdf-syntax-ns#"
   xmlns:cc="http://creativecommons.org/ns#"
   xmlns:dc="http://purl.org/dc/elements/1.1/">
  <sodipodi:namedview
     pagecolor="#ffffff"
     bordercolor="#666666"
     borderopacity="1"
     objecttolerance="10"
     gridtolerance="10"
     guidetolerance="10"
     inkscape:pageopacity="0"
     inkscape:pageshadow="2"
     inkscape:window-width="1920"
     inkscape:window-height="1009"
     id="namedview91444"
     showgrid="true"
     inkscape:zoom="0.31830048"
     inkscape:cx="1666.6641"
     inkscape:cy="1050.8938"
     inkscape:window-x="1912"
     inkscape:window-y="-8"
     inkscape:window-maximized="1"
     inkscape:current-layer="svg2"
     units="mm"
     inkscape:document-units="mm"
     inkscape:pagecheckerboard="0"
     fit-margin-top="0"
     fit-margin-left="0"
     fit-margin-right="0"
     fit-margin-bottom="0"
     width="1220mm"
     scale-x="10" />
  <defs
     id="defs4">
    <inkscape:path-effect
       effect="fillet_chamfer"
       id="path-effect1687"
       is_visible="true"
       lpeversion="1"
       satellites_param="F,0,0,1,0,75.590551,0,1 @ F,0,0,1,0,75.590551,0,1 @ F,0,0,1,0,75.590551,0,1 @ F,0,0,1,0,75.590551,0,1"
       unit="mm"
       method="auto"
       mode="F"
       radius="20"
       chamfer_steps="1"
       flexible="false"
       use_knot_distance="true"
       apply_no_radius="true"
       apply_with_radius="true"
       only_selected="false"
       hide_knots="false" />
    <inkscape:path-effect
       effect="fillet_chamfer"
       id="path-effect110"
       is_visible="true"
       lpeversion="1"
       satellites_param="F,0,0,1,0,94.488189,0,1 @ F,0,0,1,0,94.488189,0,1 @ F,0,0,1,0,94.488189,0,1 @ F,0,0,1,0,94.488189,0,1"
       unit="mm"
       method="auto"
       mode="F"
       radius="25"
       chamfer_steps="1"
       flexible="false"
       use_knot_distance="true"
       apply_no_radius="true"
       apply_with_radius="true"
       only_selected="false"
       hide_knots="false" />
    <marker
       id="DistanceX"
       orient="auto"
       refX="0.0"
       refY="0.0"
       style="overflow:visible">
      <path
         d="M 3,-3 L -3,3 M 0,-5 L  0,5"
         style="stroke:#000000; stroke-width:0.5"
         id="path41" />
    </marker>
    <pattern
       id="Hatch"
       patternUnits="userSpaceOnUse"
       width="8"
       height="8"
       x="0"
       y="0">
      <path
         d="M8 4 l-4,4"
         stroke="#000000"
         stroke-width="0.25"
         linecap="square"
         id="path44" />
      <path
         d="M6 2 l-4,4"
         stroke="#000000"
         stroke-width="0.25"
         linecap="square"
         id="path46" />
      <path
         d="M4 0 l-4,4"
         stroke="#000000"
         stroke-width="0.25"
         linecap="square"
         id="path48" />
    </pattern>
    <symbol
       id="*MODEL_SPACE" />
    <symbol
       id="*PAPER_SPACE" />
    <marker
       id="DistanceX-5"
       orient="auto"
       refX="0.0"
       refY="0.0"
       style="overflow:visible">
      <path
         d="M 3,-3 L -3,3 M 0,-5 L  0,5"
         style="stroke:#000000; stroke-width:0.5"
         id="path164" />
    </marker>
    <pattern
       id="Hatch-4"
       patternUnits="userSpaceOnUse"
       width="8"
       height="8"
       x="0"
       y="0">
      <path
         d="M8 4 l-4,4"
         stroke="#000000"
         stroke-width="0.25"
         linecap="square"
         id="path167" />
      <path
         d="M6 2 l-4,4"
         stroke="#000000"
         stroke-width="0.25"
         linecap="square"
         id="path169" />
      <path
         d="M4 0 l-4,4"
         stroke="#000000"
         stroke-width="0.25"
         linecap="square"
         id="path171" />
    </pattern>
    <symbol
       id="*MODEL_SPACE-5" />
    <symbol
       id="*PAPER_SPACE-3" />
    <marker
       id="DistanceX-2"
       orient="auto"
       refX="0.0"
       refY="0.0"
       style="overflow:visible">
      <path
         d="M 3,-3 L -3,3 M 0,-5 L  0,5"
         style="stroke:#000000; stroke-width:0.5"
         id="path1577" />
    </marker>
    <pattern
       id="Hatch-7"
       patternUnits="userSpaceOnUse"
       width="8"
       height="8"
       x="0"
       y="0">
      <path
         d="M8 4 l-4,4"
         stroke="#000000"
         stroke-width="0.25"
         linecap="square"
         id="path1580" />
      <path
         d="M6 2 l-4,4"
         stroke="#000000"
         stroke-width="0.25"
         linecap="square"
         id="path1582" />
      <path
         d="M4 0 l-4,4"
         stroke="#000000"
         stroke-width="0.25"
         linecap="square"
         id="path1584" />
    </pattern>
    <symbol
       id="*MODEL_SPACE-1" />
    <symbol
       id="*PAPER_SPACE-4" />
    <marker
       id="DistanceX-7"
       orient="auto"
       refX="0.0"
       refY="0.0"
       style="overflow:visible">
      <path
         d="M 3,-3 L -3,3 M 0,-5 L  0,5"
         style="stroke:#000000; stroke-width:0.5"
         id="path38" />
    </marker>
    <pattern
       id="Hatch-0"
       patternUnits="userSpaceOnUse"
       width="8"
       height="8"
       x="0"
       y="0">
      <path
         d="M8 4 l-4,4"
         stroke="#000000"
         stroke-width="0.25"
         linecap="square"
         id="path41-5" />
      <path
         d="M6 2 l-4,4"
         stroke="#000000"
         stroke-width="0.25"
         linecap="square"
         id="path43" />
      <path
         d="M4 0 l-4,4"
         stroke="#000000"
         stroke-width="0.25"
         linecap="square"
         id="path45" />
    </pattern>
    <symbol
       id="*MODEL_SPACE-56" />
    <symbol
       id="*PAPER_SPACE-6" />
    <marker
       id="DistanceX-1"
       orient="auto"
       refX="0.0"
       refY="0.0"
       style="overflow:visible">
      <path
         d="M 3,-3 L -3,3 M 0,-5 L  0,5"
         style="stroke:#000000; stroke-width:0.5"
         id="path2011" />
    </marker>
    <pattern
       id="Hatch-73"
       patternUnits="userSpaceOnUse"
       width="8"
       height="8"
       x="0"
       y="0">
      <path
         d="M8 4 l-4,4"
         stroke="#000000"
         stroke-width="0.25"
         linecap="square"
         id="path2014" />
      <path
         d="M6 2 l-4,4"
         stroke="#000000"
         stroke-width="0.25"
         linecap="square"
         id="path2016" />
      <path
         d="M4 0 l-4,4"
         stroke="#000000"
         stroke-width="0.25"
         linecap="square"
         id="path2018" />
    </pattern>
    <symbol
       id="*MODEL_SPACE-2" />
    <symbol
       id="*PAPER_SPACE-36" />
    <marker
       id="DistanceX-15"
       orient="auto"
       refX="0.0"
       refY="0.0"
       style="overflow:visible">
      <path
         d="M 3,-3 L -3,3 M 0,-5 L  0,5"
         style="stroke:#000000; stroke-width:0.5"
         id="path2460" />
    </marker>
    <pattern
       id="Hatch-2"
       patternUnits="userSpaceOnUse"
       width="8"
       height="8"
       x="0"
       y="0">
      <path
         d="M8 4 l-4,4"
         stroke="#000000"
         stroke-width="0.25"
         linecap="square"
         id="path2463" />
      <path
         d="M6 2 l-4,4"
         stroke="#000000"
         stroke-width="0.25"
         linecap="square"
         id="path2465" />
      <path
         d="M4 0 l-4,4"
         stroke="#000000"
         stroke-width="0.25"
         linecap="square"
         id="path2467" />
    </pattern>
    <symbol
       id="*MODEL_SPACE-58" />
    <symbol
       id="*PAPER_SPACE-2" />
  </defs>
  <metadata
     id="metadata7">
    <rdf:RDF>
      <cc:Work
         rdf:about="">
        <dc:format>image/svg+xml</dc:format>
        <dc:type
           rdf:resource="http://purl.org/dc/dcmitype/StillImage" />
      </cc:Work>
    </rdf:RDF>
  </metadata>
  <circle
     style="fill:none;stroke:#ff00ff;stroke-width:0.378"
     id="path412"
     cx="548.03149"
     cy="548.03149"
     r="56.503914" />
  <circle
     style="fill:none;stroke:#00ff00;stroke-width:0.378"
     id="path412-2"
     cx="699.21259"
     cy="548.03149"
     r="56.503914" />
  <circle
     style="fill:none;stroke:#00ffff;stroke-width:0.378"
     id="path412-25"
     cx="850.39374"
     cy="548.03149"
     r="56.503914" />
  <circle
     style="fill:none;stroke:#ffff00;stroke-width:0.378"
     id="path412-5"
     cx="1001.5748"
     cy="548.03149"
     r="56.503914" />
  <path
     d="m 3042.4706,2192.626 -128.0035,-351.687 a 94.488189,94.488189 0 0 0 -88.7899,-62.1713 H 690.2834 a 94.488189,94.488189 0 0 0 -88.7899,62.1713 L 473.4899,2192.626 H 151.6811 A 94.488189,94.488189 0 0 1 57.1929,2098.1378 V 132.7835 a 94.488189,94.488189 0 0 1 94.4882,-94.4882 h 3212.5984 a 94.488189,94.488189 0 0 1 94.4882,94.4882 v 1965.3543 a 94.488189,94.488189 0 0 1 -94.4882,94.4882 z"
     style="fill:none;stroke:#0000ff"
     id="path2025" />
  <path
     d="m 246.1693,151.6811 a 75.590551,75.590551 0 1 0 -151.1811,0 75.590551,75.590551 0 1 0 151.1811,0 z"
     style="fill:none;stroke:#ff0000"
     id="path2027" />
  <path
     d="m 321.7598,378.4527 v 1171.6536 a 75.590551,75.590551 0 0 0 75.5906,75.5905 h 2721.2598 a 75.590551,75.590551 0 0 0 75.5906,-75.5905 V 378.4527 a 75.590551,75.590551 0 0 0 -75.5906,-75.5905 H 397.3504 a 75.590551,75.590551 0 0 0 -75.5906,75.5905 z"
     style="fill:none;stroke:#008000"
     id="path2029" />
  <path
     d="m 3420.9724,151.6811 a 75.590551,75.590551 0 1 0 -151.1811,0 75.590551,75.590551 0 1 0 151.1811,0 z"
     style="fill:none;stroke:#ff0000"
     id="path2031" />
  <path
     d="m 246.1693,2079.2401 a 75.590551,75.590551 0 1 0 -151.1811,0 75.590551,75.590551 0 1 0 151.1811,0 z"
     style="fill:none;stroke:#ff0000"
     id="path2035" />
  <path
     d="m 3420.9724,2079.2401 a 75.590551,75.590551 0 1 0 -151.1811,0 75.590551,75.590551 0 1 0 151.1811,0 z"
     style="fill:none;stroke:#ff0000"
     id="path2037" />
  <path
     d="M 693.13748,698.52951 H 2129.358 a 245.6693,245.6693 0 0 1 0,491.33859 H 693.13748 a 245.6693,245.6693 0 0 1 0,-491.33859 z"
     style="fill:none;stroke:#2b0000"
     id="path2494" />
  <path
     d="M 995.49968,1076.4822 H 1826.9958 V 811.91531 H 995.49968 Z"
     style="fill:none;stroke:#800080"
     id="path2496" />
  <path
     d="m 875.49968,944.19881 a 182.3622,182.3622 0 1 0 -364.7244,0 182.3622,182.3622 0 1 0 364.7244,0 z"
     style="fill:none;stroke:#800080"
     id="path2498" />
  <path
     d="m 2311.7202,944.19881 a 182.3622,182.3622 0 1 0 -364.7244,0 182.3622,182.3622 0 1 0 364.7244,0 z"
     style="fill:none;stroke:#800080"
     id="path2500" />
</svg>
