<?xml version="1.0" encoding="UTF-8" standalone="no"?>
<!-- Created with Inkscape (http://www.inkscape.org/) -->

<svg
   version="1.1"
   width="1220mm"
   height="610mm"
   id="svg2"
   inkscape:version="1.1.1 (3bf5ae0d25, 2021-09-20)"
   sodipodi:docname="3mm.svg"
   viewBox="0 0 4611.0234 2305.5117"
   xmlns:inkscape="http://www.inkscape.org/namespaces/inkscape"
   xmlns:sodipodi="http://sodipodi.sourceforge.net/DTD/sodipodi-0.dtd"
   xmlns="http://www.w3.org/2000/svg"
   xmlns:svg="http://www.w3.org/2000/svg"
   xmlns:rdf="http://www.w3.org/1999/02/22-rdf-syntax-ns#"
   xmlns:cc="http://creativecommons.org/ns#"
   xmlns:dc="http://purl.org/dc/elements/1.1/">
  <sodipodi:namedview
     pagecolor="#ffffff"
     bordercolor="#666666"
     borderopacity="1"
     objecttolerance="10"
     gridtolerance="10"
     guidetolerance="10"
     inkscape:pageopacity="0"
     inkscape:pageshadow="2"
     inkscape:window-width="1920"
     inkscape:window-height="1009"
     id="namedview91444"
     showgrid="true"
     inkscape:zoom="0.22507243"
     inkscape:cx="2632.4859"
     inkscape:cy="157.727"
     inkscape:window-x="1912"
     inkscape:window-y="-8"
     inkscape:window-maximized="1"
     inkscape:current-layer="svg2"
     units="mm"
     inkscape:document-units="mm"
     inkscape:pagecheckerboard="0"
     fit-margin-top="0"
     fit-margin-left="0"
     fit-margin-right="0"
     fit-margin-bottom="0"
     width="1220mm"
     scale-x="10" />
  <defs
     id="defs4">
    <inkscape:path-effect
       effect="fillet_chamfer"
       id="path-effect1687"
       is_visible="true"
       lpeversion="1"
       satellites_param="F,0,0,1,0,75.590551,0,1 @ F,0,0,1,0,75.590551,0,1 @ F,0,0,1,0,75.590551,0,1 @ F,0,0,1,0,75.590551,0,1"
       unit="mm"
       method="auto"
       mode="F"
       radius="20"
       chamfer_steps="1"
       flexible="false"
       use_knot_distance="true"
       apply_no_radius="true"
       apply_with_radius="true"
       only_selected="false"
       hide_knots="false" />
    <inkscape:path-effect
       effect="fillet_chamfer"
       id="path-effect110"
       is_visible="true"
       lpeversion="1"
       satellites_param="F,0,0,1,0,94.488189,0,1 @ F,0,0,1,0,94.488189,0,1 @ F,0,0,1,0,94.488189,0,1 @ F,0,0,1,0,94.488189,0,1"
       unit="mm"
       method="auto"
       mode="F"
       radius="25"
       chamfer_steps="1"
       flexible="false"
       use_knot_distance="true"
       apply_no_radius="true"
       apply_with_radius="true"
       only_selected="false"
       hide_knots="false" />
    <marker
       id="DistanceX"
       orient="auto"
       refX="0.0"
       refY="0.0"
       style="overflow:visible">
      <path
         d="M 3,-3 L -3,3 M 0,-5 L  0,5"
         style="stroke:#000000; stroke-width:0.5"
         id="path41" />
    </marker>
    <pattern
       id="Hatch"
       patternUnits="userSpaceOnUse"
       width="8"
       height="8"
       x="0"
       y="0">
      <path
         d="M8 4 l-4,4"
         stroke="#000000"
         stroke-width="0.25"
         linecap="square"
         id="path44" />
      <path
         d="M6 2 l-4,4"
         stroke="#000000"
         stroke-width="0.25"
         linecap="square"
         id="path46" />
      <path
         d="M4 0 l-4,4"
         stroke="#000000"
         stroke-width="0.25"
         linecap="square"
         id="path48" />
    </pattern>
    <symbol
       id="*MODEL_SPACE" />
    <symbol
       id="*PAPER_SPACE" />
    <marker
       id="DistanceX-5"
       orient="auto"
       refX="0.0"
       refY="0.0"
       style="overflow:visible">
      <path
         d="M 3,-3 L -3,3 M 0,-5 L  0,5"
         style="stroke:#000000; stroke-width:0.5"
         id="path164" />
    </marker>
    <pattern
       id="Hatch-4"
       patternUnits="userSpaceOnUse"
       width="8"
       height="8"
       x="0"
       y="0">
      <path
         d="M8 4 l-4,4"
         stroke="#000000"
         stroke-width="0.25"
         linecap="square"
         id="path167" />
      <path
         d="M6 2 l-4,4"
         stroke="#000000"
         stroke-width="0.25"
         linecap="square"
         id="path169" />
      <path
         d="M4 0 l-4,4"
         stroke="#000000"
         stroke-width="0.25"
         linecap="square"
         id="path171" />
    </pattern>
    <symbol
       id="*MODEL_SPACE-5" />
    <symbol
       id="*PAPER_SPACE-3" />
    <marker
       id="DistanceX-2"
       orient="auto"
       refX="0.0"
       refY="0.0"
       style="overflow:visible">
      <path
         d="M 3,-3 L -3,3 M 0,-5 L  0,5"
         style="stroke:#000000; stroke-width:0.5"
         id="path1577" />
    </marker>
    <pattern
       id="Hatch-7"
       patternUnits="userSpaceOnUse"
       width="8"
       height="8"
       x="0"
       y="0">
      <path
         d="M8 4 l-4,4"
         stroke="#000000"
         stroke-width="0.25"
         linecap="square"
         id="path1580" />
      <path
         d="M6 2 l-4,4"
         stroke="#000000"
         stroke-width="0.25"
         linecap="square"
         id="path1582" />
      <path
         d="M4 0 l-4,4"
         stroke="#000000"
         stroke-width="0.25"
         linecap="square"
         id="path1584" />
    </pattern>
    <symbol
       id="*MODEL_SPACE-1" />
    <symbol
       id="*PAPER_SPACE-4" />
    <marker
       id="DistanceX-6"
       orient="auto"
       refX="0.0"
       refY="0.0"
       style="overflow:visible">
      <path
         d="M 3,-3 L -3,3 M 0,-5 L  0,5"
         style="stroke:#000000; stroke-width:0.5"
         id="path2383" />
    </marker>
    <pattern
       id="Hatch-78"
       patternUnits="userSpaceOnUse"
       width="8"
       height="8"
       x="0"
       y="0">
      <path
         d="M8 4 l-4,4"
         stroke="#000000"
         stroke-width="0.25"
         linecap="square"
         id="path2386" />
      <path
         d="M6 2 l-4,4"
         stroke="#000000"
         stroke-width="0.25"
         linecap="square"
         id="path2388" />
      <path
         d="M4 0 l-4,4"
         stroke="#000000"
         stroke-width="0.25"
         linecap="square"
         id="path2390" />
    </pattern>
    <symbol
       id="*MODEL_SPACE-9" />
    <symbol
       id="*PAPER_SPACE-7" />
  </defs>
  <metadata
     id="metadata7">
    <rdf:RDF>
      <cc:Work
         rdf:about="">
        <dc:format>image/svg+xml</dc:format>
        <dc:type
           rdf:resource="http://purl.org/dc/dcmitype/StillImage" />
      </cc:Work>
    </rdf:RDF>
  </metadata>
  <circle
     style="fill:none;stroke:#ff00ff;stroke-width:0.378"
     id="path412"
     cx="510.23621"
     cy="548.03149"
     r="56.503914" />
  <circle
     style="fill:none;stroke:#00ff00;stroke-width:0.378"
     id="path412-2"
     cx="661.41736"
     cy="548.03149"
     r="56.503914" />
  <circle
     style="fill:none;stroke:#00ffff;stroke-width:0.378"
     id="path412-25"
     cx="812.59845"
     cy="548.03149"
     r="56.503914" />
  <circle
     style="fill:none;stroke:#ffff00;stroke-width:0.378"
     id="path412-5"
     cx="963.77954"
     cy="548.03149"
     r="56.503914" />
  <path
     d="m 3364.2809,76.0907 a 94.488189,94.488189 0 0 1 94.4882,94.4882 v 1965.3543 a 94.488189,94.488189 0 0 1 -94.4882,94.4882 H 3040.461 l -127.7683,-351.0406 a 92.598425,92.598425 0 0 0 -87.0141,-60.9279 H 690.2848 a 92.598425,92.598425 0 0 0 -87.0141,60.9279 L 475.5024,2230.4214 H 151.6825 A 94.488189,94.488189 0 0 1 57.1943,2135.9332 V 170.5789 a 94.488189,94.488189 0 0 1 94.4882,-94.4882 z"
     style="fill:none;stroke:#000000"
     id="path2397" />
  <path
     style="fill:none;stroke:#000000"
     d="m 38.2953,57.1929 h 4611.01"
     id="path2399" />
  <path
     style="fill:none;stroke:#000000"
     d="M 4649.3053,2362.7029 H 38.2953"
     id="path2401" />
  <path
     d="m 3194.2022,1587.9017 a 75.590551,75.590551 0 0 1 -75.5906,75.5905 H 397.3518 a 75.590551,75.590551 0 0 1 -75.5906,-75.5905 V 416.2481 a 75.590551,75.590551 0 0 1 75.5906,-75.5905 h 2721.2598 a 75.590551,75.590551 0 0 1 75.5906,75.5905 z"
     style="fill:none;stroke:#000000"
     id="path2403" />
  <path
     style="fill:none;stroke:#000000"
     d="M 38.2953,2362.7029 V 57.1929"
     id="path2405" />
  <path
     d="m 246.1707,189.4765 a 75.590551,75.590551 0 1 0 -151.1811,0 75.590551,75.590551 0 1 0 151.1811,0 z"
     style="fill:none;stroke:#000000"
     id="path2407" />
  <path
     style="fill:none;stroke:#000000"
     d="m 4649.3053,57.1929 v 2305.51"
     id="path2409" />
  <path
     d="m 246.1707,2117.0355 a 75.590551,75.590551 0 1 0 -151.1811,0 75.590551,75.590551 0 1 0 151.1811,0 z"
     style="fill:none;stroke:#000000"
     id="path2411" />
  <path
     d="m 3420.9738,2117.0355 a 75.590551,75.590551 0 1 0 -151.1811,0 75.590551,75.590551 0 1 0 151.1811,0 z"
     style="fill:none;stroke:#000000"
     id="path2413" />
  <path
     d="m 3420.9738,189.4765 a 75.590551,75.590551 0 1 0 -151.1811,0 75.590551,75.590551 0 1 0 151.1811,0 z"
     style="fill:none;stroke:#000000"
     id="path2415" />
  <path
     style="fill:none;stroke:#000000"
     d="m 690.2853,1816.5629 h 2135.39"
     id="path2417" />
  <path
     style="fill:none;stroke:#000000"
     d="m 2914.4653,1878.7329 128.69,353.58"
     id="path2419" />
  <path
     style="fill:none;stroke:#000000"
     d="m 601.4953,1878.7329 -128.69,353.58"
     id="path2421" />
  <path
     d="m 690.2848,1816.5631 a 94.488189,94.488189 0 0 0 -88.7899,62.1713"
     style="fill:none;stroke:#000000"
     id="path2423" />
  <path
     d="m 2914.4685,1878.7344 a 94.488189,94.488189 0 0 0 -88.7899,-62.1713"
     style="fill:none;stroke:#000000"
     id="path2425" />
  <path
     style="fill:none;stroke:#000000"
     d="m 151.6853,2230.4229 h 323.82"
     id="path2427" />
  <path
     style="fill:none;stroke:#000000"
     d="m 3040.4653,2230.4229 h 323.82"
     id="path2429" />
</svg>
