<?xml version="1.0" encoding="UTF-8" standalone="no"?>
<!-- Created with Inkscape (http://www.inkscape.org/) -->

<svg
   version="1.1"
   width="1220mm"
   height="610mm"
   id="svg2"
   inkscape:version="1.1.1 (3bf5ae0d25, 2021-09-20)"
   sodipodi:docname="5mm.svg"
   viewBox="0 0 4611.0234 2305.5117"
   xmlns:inkscape="http://www.inkscape.org/namespaces/inkscape"
   xmlns:sodipodi="http://sodipodi.sourceforge.net/DTD/sodipodi-0.dtd"
   xmlns="http://www.w3.org/2000/svg"
   xmlns:svg="http://www.w3.org/2000/svg"
   xmlns:rdf="http://www.w3.org/1999/02/22-rdf-syntax-ns#"
   xmlns:cc="http://creativecommons.org/ns#"
   xmlns:dc="http://purl.org/dc/elements/1.1/">
  <sodipodi:namedview
     pagecolor="#ffffff"
     bordercolor="#666666"
     borderopacity="1"
     objecttolerance="10"
     gridtolerance="10"
     guidetolerance="10"
     inkscape:pageopacity="0"
     inkscape:pageshadow="2"
     inkscape:window-width="1920"
     inkscape:window-height="1009"
     id="namedview91444"
     showgrid="true"
     inkscape:zoom="0.15915024"
     inkscape:cx="21.991798"
     inkscape:cy="845.1134"
     inkscape:window-x="-8"
     inkscape:window-y="-8"
     inkscape:window-maximized="1"
     inkscape:current-layer="svg2"
     units="mm"
     inkscape:document-units="mm"
     inkscape:pagecheckerboard="0"
     fit-margin-top="0"
     fit-margin-left="0"
     fit-margin-right="0"
     fit-margin-bottom="0"
     width="1220mm"
     scale-x="10" />
  <defs
     id="defs4">
    <inkscape:path-effect
       effect="fillet_chamfer"
       id="path-effect1687"
       is_visible="true"
       lpeversion="1"
       satellites_param="F,0,0,1,0,75.590551,0,1 @ F,0,0,1,0,75.590551,0,1 @ F,0,0,1,0,75.590551,0,1 @ F,0,0,1,0,75.590551,0,1"
       unit="mm"
       method="auto"
       mode="F"
       radius="20"
       chamfer_steps="1"
       flexible="false"
       use_knot_distance="true"
       apply_no_radius="true"
       apply_with_radius="true"
       only_selected="false"
       hide_knots="false" />
    <inkscape:path-effect
       effect="fillet_chamfer"
       id="path-effect110"
       is_visible="true"
       lpeversion="1"
       satellites_param="F,0,0,1,0,94.488189,0,1 @ F,0,0,1,0,94.488189,0,1 @ F,0,0,1,0,94.488189,0,1 @ F,0,0,1,0,94.488189,0,1"
       unit="mm"
       method="auto"
       mode="F"
       radius="25"
       chamfer_steps="1"
       flexible="false"
       use_knot_distance="true"
       apply_no_radius="true"
       apply_with_radius="true"
       only_selected="false"
       hide_knots="false" />
    <marker
       id="DistanceX"
       orient="auto"
       refX="0.0"
       refY="0.0"
       style="overflow:visible">
      <path
         d="M 3,-3 L -3,3 M 0,-5 L  0,5"
         style="stroke:#000000; stroke-width:0.5"
         id="path41" />
    </marker>
    <pattern
       id="Hatch"
       patternUnits="userSpaceOnUse"
       width="8"
       height="8"
       x="0"
       y="0">
      <path
         d="M8 4 l-4,4"
         stroke="#000000"
         stroke-width="0.25"
         linecap="square"
         id="path44" />
      <path
         d="M6 2 l-4,4"
         stroke="#000000"
         stroke-width="0.25"
         linecap="square"
         id="path46" />
      <path
         d="M4 0 l-4,4"
         stroke="#000000"
         stroke-width="0.25"
         linecap="square"
         id="path48" />
    </pattern>
    <symbol
       id="*MODEL_SPACE" />
    <symbol
       id="*PAPER_SPACE" />
    <marker
       id="DistanceX-5"
       orient="auto"
       refX="0.0"
       refY="0.0"
       style="overflow:visible">
      <path
         d="M 3,-3 L -3,3 M 0,-5 L  0,5"
         style="stroke:#000000; stroke-width:0.5"
         id="path164" />
    </marker>
    <pattern
       id="Hatch-4"
       patternUnits="userSpaceOnUse"
       width="8"
       height="8"
       x="0"
       y="0">
      <path
         d="M8 4 l-4,4"
         stroke="#000000"
         stroke-width="0.25"
         linecap="square"
         id="path167" />
      <path
         d="M6 2 l-4,4"
         stroke="#000000"
         stroke-width="0.25"
         linecap="square"
         id="path169" />
      <path
         d="M4 0 l-4,4"
         stroke="#000000"
         stroke-width="0.25"
         linecap="square"
         id="path171" />
    </pattern>
    <symbol
       id="*MODEL_SPACE-5" />
    <symbol
       id="*PAPER_SPACE-3" />
    <marker
       id="DistanceX-2"
       orient="auto"
       refX="0.0"
       refY="0.0"
       style="overflow:visible">
      <path
         d="M 3,-3 L -3,3 M 0,-5 L  0,5"
         style="stroke:#000000; stroke-width:0.5"
         id="path1577" />
    </marker>
    <pattern
       id="Hatch-7"
       patternUnits="userSpaceOnUse"
       width="8"
       height="8"
       x="0"
       y="0">
      <path
         d="M8 4 l-4,4"
         stroke="#000000"
         stroke-width="0.25"
         linecap="square"
         id="path1580" />
      <path
         d="M6 2 l-4,4"
         stroke="#000000"
         stroke-width="0.25"
         linecap="square"
         id="path1582" />
      <path
         d="M4 0 l-4,4"
         stroke="#000000"
         stroke-width="0.25"
         linecap="square"
         id="path1584" />
    </pattern>
    <symbol
       id="*MODEL_SPACE-1" />
    <symbol
       id="*PAPER_SPACE-4" />
    <marker
       id="DistanceX-25"
       orient="auto"
       refX="0.0"
       refY="0.0"
       style="overflow:visible">
      <path
         d="M 3,-3 L -3,3 M 0,-5 L  0,5"
         style="stroke:#000000; stroke-width:0.5"
         id="path48-0" />
    </marker>
    <pattern
       id="Hatch-2"
       patternUnits="userSpaceOnUse"
       width="8"
       height="8"
       x="0"
       y="0">
      <path
         d="M8 4 l-4,4"
         stroke="#000000"
         stroke-width="0.25"
         linecap="square"
         id="path51" />
      <path
         d="M6 2 l-4,4"
         stroke="#000000"
         stroke-width="0.25"
         linecap="square"
         id="path53" />
      <path
         d="M4 0 l-4,4"
         stroke="#000000"
         stroke-width="0.25"
         linecap="square"
         id="path55" />
    </pattern>
    <symbol
       id="*MODEL_SPACE-19" />
    <symbol
       id="*PAPER_SPACE-40" />
  </defs>
  <metadata
     id="metadata7">
    <rdf:RDF>
      <cc:Work
         rdf:about="">
        <dc:format>image/svg+xml</dc:format>
        <dc:type
           rdf:resource="http://purl.org/dc/dcmitype/StillImage" />
      </cc:Work>
    </rdf:RDF>
  </metadata>
  <circle
     style="fill:none;stroke:#ff00ff;stroke-width:0.378"
     id="path412"
     cx="94.488182"
     cy="94.48819"
     r="56.503914" />
  <circle
     style="fill:none;stroke:#00ff00;stroke-width:0.378"
     id="path412-2"
     cx="245.6693"
     cy="94.48819"
     r="56.503914" />
  <circle
     style="fill:none;stroke:#00ffff;stroke-width:0.378"
     id="path412-25"
     cx="396.8504"
     cy="94.48819"
     r="56.503914" />
  <circle
     style="fill:none;stroke:#ffff00;stroke-width:0.378"
     id="path412-5"
     cx="548.03149"
     cy="94.48819"
     r="56.503914" />
  <path
     d="m 1970.8104,505.64 v -67.2425 a 9.448819,9.448819 0 0 0 -9.4488,-9.4488 h -75.5906 a 9.448819,9.448819 0 0 0 -9.4488,9.4488 V 505.64 a 9.448819,9.448819 0 0 0 9.4488,9.4488 h 75.5906 a 9.448819,9.448819 0 0 0 9.4488,-9.4488 z"
     style="fill:none;stroke:#0000ff"
     id="path62" />
  <path
     d="m 804.82607,505.64 v -67.2425 a 9.448819,9.448819 0 0 0 -9.4488,-9.4488 h -75.5905 a 9.448819,9.448819 0 0 0 -9.4489,9.4488 V 505.64 a 9.448819,9.448819 0 0 0 9.4489,9.4488 h 75.5905 a 9.448819,9.448819 0 0 0 9.4488,-9.4488 z"
     style="fill:none;stroke:#0000ff"
     id="path64" />
  <path
     d="m 553.48751,514.5158 a 56.692915,56.692915 0 1 0 -113.38583,0 56.692915,56.692915 0 1 0 113.38583,0 z"
     style="fill:none;stroke:#0000ff"
     id="path66" />
  <path
     d="M 2623.7413,641.13 H 57.40699 L 185.86314,288.1996 a 92.598425,92.598425 0 0 1 87.01406,-60.9279 h 2135.3939 a 92.598425,92.598425 0 0 1 87.014,60.9279 z"
     style="fill:none;stroke:#ff0000"
     id="path68" />
  <path
     d="m 2241.0466,514.5158 a 56.692914,56.692914 0 1 0 -113.3858,0 56.692914,56.692914 0 1 0 113.3858,0 z"
     style="fill:none;stroke:#0000ff"
     id="path70" />
  <path
     d="m 1970.8104,1034.7738 v -67.2425 a 9.448819,9.448819 0 0 0 -9.4488,-9.4488 h -75.5906 a 9.448819,9.448819 0 0 0 -9.4488,9.4488 v 67.2425 a 9.448819,9.448819 0 0 0 9.4488,9.4488 h 75.5906 a 9.448819,9.448819 0 0 0 9.4488,-9.4488 z"
     style="fill:none;stroke:#0000ff"
     id="path62-7" />
  <path
     d="m 804.82607,1034.7738 v -67.2425 a 9.448819,9.448819 0 0 0 -9.4488,-9.4488 h -75.5905 a 9.448819,9.448819 0 0 0 -9.4489,9.4488 v 67.2425 a 9.448819,9.448819 0 0 0 9.4489,9.4488 h 75.5905 a 9.448819,9.448819 0 0 0 9.4488,-9.4488 z"
     style="fill:none;stroke:#0000ff"
     id="path64-2" />
  <path
     d="m 553.48751,1043.6496 a 56.692915,56.692915 0 1 0 -113.38583,0 56.692915,56.692915 0 1 0 113.38583,0 z"
     style="fill:none;stroke:#0000ff"
     id="path66-7" />
  <path
     d="M 2623.7413,1170.2638 H 57.40699 L 185.86314,817.3334 a 92.598425,92.598425 0 0 1 87.01406,-60.9279 h 2135.3939 a 92.598425,92.598425 0 0 1 87.014,60.9279 z"
     style="fill:none;stroke:#ff0000"
     id="path68-1" />
  <path
     d="m 2241.0466,1043.6496 a 56.692914,56.692914 0 1 0 -113.3858,0 56.692914,56.692914 0 1 0 113.3858,0 z"
     style="fill:none;stroke:#0000ff"
     id="path70-9" />
</svg>
